<?xml version="1.0" encoding="UTF-8" standalone="no"?><svg xmlns="http://www.w3.org/2000/svg" xmlns:xlink="http://www.w3.org/1999/xlink" data-name="Layer 1" fill="#000000" height="553.8" preserveAspectRatio="xMidYMid meet" version="1" viewBox="222.5 223.1 554.4 553.8" width="554.4" zoomAndPan="magnify"><g id="change1_1"><path d="m555.379,632.863c-13.812,0-27.715-3.543-40.278-10.822-57.617-33.384-103.758-79.524-137.142-137.142-18.24-31.481-13.032-71.415,12.664-97.112,20.65-20.649,54.252-20.652,74.904,0,20.451,20.453,20.613,53.892.359,74.54l-4.055,4.135c-2.134,2.175-2.578,5.447-1.105,8.141,5.509,10.078,14.722,24.737,27.328,37.344s27.266,21.819,37.343,27.328c2.694,1.473,5.967,1.029,8.142-1.105l4.134-4.055c20.648-20.253,54.089-20.093,74.54.359,20.65,20.651,20.651,54.253,0,74.903h0c-15.442,15.443-36.032,23.487-56.834,23.487Zm-127.305-240.574c-8.441,0-16.883,3.213-23.309,9.64-19.297,19.298-23.204,49.293-9.502,72.943,31.612,54.56,75.305,98.252,129.864,129.864,23.649,13.701,53.646,9.796,72.942-9.502,12.854-12.853,12.854-33.767,0-46.619-12.731-12.731-33.542-12.83-46.394-.225l-4.133,4.055c-8.509,8.347-21.263,10.104-31.74,4.377-11.227-6.137-27.607-16.45-41.893-30.734-14.284-14.285-24.598-30.666-30.734-41.894-5.728-10.477-3.969-23.231,4.377-31.739l4.055-4.133c12.605-12.853,12.505-33.664-.225-46.393-6.426-6.427-14.868-9.641-23.311-9.641Z" fill="#ffffff"/></g><g id="change1_2"><path d="m233.089,776.911c-2.819,0-5.546-1.193-7.464-3.346-2.378-2.666-3.152-6.398-2.031-9.791l39.669-120.078c-26.296-43.239-40.174-92.818-40.174-143.696,0-73.966,28.804-143.504,81.105-195.806s121.84-81.105,195.806-81.105,143.504,28.804,195.806,81.105,81.105,121.84,81.105,195.806-28.804,143.504-81.105,195.806-121.84,81.105-195.806,81.105c-43.083,0-85.956-10.15-124.232-29.383l-140.647,29.175c-.676.14-1.356.208-2.031.208Zm144.094-49.889c1.595,0,3.176.381,4.608,1.125,36.759,19.086,76.53,28.764,118.209,28.764,68.624,0,133.14-26.724,181.664-75.247,48.523-48.524,75.247-113.04,75.247-181.664s-26.724-133.14-75.247-181.664c-48.524-48.523-113.04-75.247-181.664-75.247s-133.14,26.724-181.664,75.247c-48.523,48.524-75.247,113.04-75.247,181.664,0,48.685,13.689,96.077,39.588,137.055,1.598,2.528,1.98,5.64,1.042,8.479l-35.701,108.067,127.134-26.371c.673-.139,1.354-.208,2.031-.208Z" fill="#ffffff"/></g><g id="change1_3"><path d="m500,720.521c-58.903,0-114.281-22.938-155.932-64.589s-64.589-97.028-64.589-155.932,22.938-114.281,64.589-155.932,97.028-64.589,155.932-64.589,114.281,22.938,155.932,64.589,64.589,97.028,64.589,155.932-22.938,114.281-64.589,155.932-97.028,64.589-155.932,64.589Zm0-421.041c-110.567,0-200.521,89.953-200.521,200.521s89.953,200.521,200.521,200.521,200.521-89.953,200.521-200.521-89.953-200.521-200.521-200.521Z" fill="#ffffff"/></g></svg>